# xmcd
#
# Track frame offsets:
#	182
#	15325
#	26812
#	37700
#	52437
#	65820
#	75697
#	89730
#	100760
#	116810
#
# Disc length: 1882
#
# Revision: 3
# Processed by: cddbd v1.5.1PL0 Copyright (c) Steve Scherf et al.
# Submitted via: VisiTrax 2.9.5.181 - For more info visit www.synapsa.com
# Normalized: r2:DSETVAR1
#
DISCID=8407580a
DTITLE=Various Artist - Great Divorce Songs For Him
DYEAR=1900
DGENRE=
TTITLE0=John Anderson - It's All Over Now
TTITLE1=Travis Tritt - Here's a Quarter
TTITLE2=Eddie Rabbitt - Drinkin' My Baby
TTITLE3=Randy Travis - Have a Nice Rest of Your Life
TTITLE4=Hank Williams, Jr. - All My Rowdy Friends Are Coming Over Tonight
TTITLE5=Pinkard and Bowden - Drivin' My Wife Away
TTITLE6=Little Texas - Cry On
TTITLE7=Randy Travis - Too Gone Too Long
TTITLE8=T.G. Sheppard - Party Time
TTITLE9=Mark O'Connor - Restless
EXTD=
EXTT0=
EXTT1=
EXTT2=
EXTT3=
EXTT4=
EXTT5=
EXTT6=
EXTT7=
EXTT8=
EXTT9=
PLAYORDER=
